<mxfile host="app.diagrams.net" modified="2023-10-25T13:35:38.406Z" agent="Mozilla/5.0 (X11; Linux x86_64) AppleWebKit/537.36 (KHTML, like Gecko) Chrome/116.0.5845.1028 YaBrowser/23.9.0.0 Safari/537.36" etag="_vQAU9b9OPs61pzRK5P4" version="22.0.8" type="github">
  <diagram name="Страница — 1" id="pNb3ma1z1RhUglrueCLy">
    <mxGraphModel dx="1316" dy="804" grid="1" gridSize="10" guides="1" tooltips="1" connect="1" arrows="1" fold="1" page="1" pageScale="1" pageWidth="827" pageHeight="1169" math="0" shadow="0">
      <root>
        <mxCell id="0" />
        <mxCell id="1" parent="0" />
        <mxCell id="BNrArtAVExPOBgZ7R5rQ-1" value="" style="rounded=0;whiteSpace=wrap;html=1;" parent="1" vertex="1">
          <mxGeometry x="230" y="180" width="120" height="60" as="geometry" />
        </mxCell>
        <mxCell id="BNrArtAVExPOBgZ7R5rQ-2" value="" style="rhombus;whiteSpace=wrap;html=1;" parent="1" vertex="1">
          <mxGeometry x="320" y="280" width="80" height="80" as="geometry" />
        </mxCell>
      </root>
    </mxGraphModel>
  </diagram>
</mxfile>
